<?xml version="1.0" standalone="no"?><!DOCTYPE svg PUBLIC "-//W3C//DTD SVG 1.1//EN" "http://www.w3.org/Graphics/SVG/1.1/DTD/svg11.dtd"><svg t="1616246115579" class="icon" viewBox="0 0 1024 1024" version="1.1" xmlns="http://www.w3.org/2000/svg" p-id="3171" xmlns:xlink="http://www.w3.org/1999/xlink" width="200" height="200"><defs><style type="text/css"></style></defs><path d="M661.333333 490.666667h-128v-128a21.333333 21.333333 0 0 0-42.666666 0v128h-128a21.333333 21.333333 0 0 0 0 42.666666h128v128a21.333333 21.333333 0 0 0 42.666666 0v-128h128a21.333333 21.333333 0 0 0 0-42.666666z" fill="#646464" p-id="3172"></path><path d="M512 85.333333a426.666667 426.666667 0 1 0 426.666667 426.666667A427.157333 427.157333 0 0 0 512 85.333333z m0 810.666667a384 384 0 1 1 384-384 384.426667 384.426667 0 0 1-384 384z" fill="#646464" p-id="3173"></path></svg>