<?xml version="1.0" standalone="no"?><!DOCTYPE svg PUBLIC "-//W3C//DTD SVG 1.1//EN" "http://www.w3.org/Graphics/SVG/1.1/DTD/svg11.dtd"><svg t="1607844116914" class="icon" viewBox="0 0 1024 1024" version="1.1" xmlns="http://www.w3.org/2000/svg" p-id="3619" xmlns:xlink="http://www.w3.org/1999/xlink" width="200" height="200"><defs><style type="text/css"></style></defs><path d="M962.094068 708.500373c-36.895305-11.231809-262.625396-80.057337-315.641867-99.172697 34.775015-59.368132 62.512752-127.337153 80.763418-201.375403L528.363689 407.952272l0-67.038836 243.819075 0 0-41.079604L528.363689 299.833833 528.363689 187.957813l-93.7635 0c-16.842597 0-18.875906 15.172561-18.875906 15.172561l0 96.703459L187.030697 299.833833l0 41.079604 228.693586 0 0 67.038836L228.247424 407.952272l0 37.334303 378.886283 0c-13.938454 47.215348-32.311917 91.569532-54.394864 131.881656-85.460394-28.045753-133.401266-47.514153-238.20624-57.277518C115.726721 501.288031 69.90614 609.776907 62.775742 676.122965 52.018747 777.185708 142.033877 859.815637 276.93224 859.815637c134.859477 0 224.354767-61.769832 309.813115-164.668387 109.49581 51.92358 373.496529 165.473729 373.496529 165.473729L962.094068 708.500373 962.094068 708.500373 962.094068 708.500373 962.094068 708.500373zM262.034948 795.805788c-142.527111 0-165.101245-89.446171-157.502174-126.849036 7.43125-37.238113 48.712445-85.704964 127.98593-85.704964 91.039459 0 172.597987 23.096021 270.493597 70.495564C434.246125 742.758618 349.745592 795.805788 262.034948 795.805788L262.034948 795.805788 262.034948 795.805788 262.034948 795.805788z" p-id="3620"></path></svg>