<?xml version="1.0" standalone="no"?><!DOCTYPE svg PUBLIC "-//W3C//DTD SVG 1.1//EN" "http://www.w3.org/Graphics/SVG/1.1/DTD/svg11.dtd"><svg t="1616246123988" class="icon" viewBox="0 0 1024 1024" version="1.1" xmlns="http://www.w3.org/2000/svg" p-id="3312" xmlns:xlink="http://www.w3.org/1999/xlink" width="200" height="200"><defs><style type="text/css"></style></defs><path d="M789.504 343.552c-12.8 0-21.504 8.704-21.504 21.504v490.496c0 23.552-19.456 42.496-42.496 42.496H298.496c-23.552 0-42.496-19.456-42.496-42.496V362.496c0-12.8-8.704-21.504-21.504-21.504s-21.504 8.704-21.504 21.504v490.496c0 47.104 38.4 85.504 85.504 85.504h426.496c47.104 0 85.504-38.4 85.504-85.504V362.496c0-10.24-10.752-18.944-20.992-18.944z m125.952-109.056h-168.448V170.496c0-47.104-38.4-85.504-85.504-85.504H362.496c-47.104 0-85.504 38.4-85.504 85.504v64H106.496c-12.8 0-21.504 8.704-21.504 21.504s8.704 21.504 21.504 21.504h808.448c12.8 0 21.504-8.704 21.504-21.504s-8.192-21.504-20.992-21.504zM320 170.496c0-23.552 19.456-42.496 42.496-42.496h298.496c23.552 0 42.496 19.456 42.496 42.496v64h-384V170.496z" p-id="3313"></path><path d="M640 704V365.056c0-12.8-8.704-21.504-21.504-21.504s-21.504 8.704-21.504 21.504v339.456c0 12.8 8.704 21.504 21.504 21.504 12.8-0.512 21.504-11.264 21.504-22.016z m-213.504 0V362.496c0-12.8-8.704-21.504-21.504-21.504s-21.504 8.704-21.504 21.504v341.504c0 12.8 8.704 21.504 21.504 21.504 13.312 0 21.504-10.752 21.504-21.504z" p-id="3314"></path></svg>