<?xml version="1.0" standalone="no"?><!DOCTYPE svg PUBLIC "-//W3C//DTD SVG 1.1//EN" "http://www.w3.org/Graphics/SVG/1.1/DTD/svg11.dtd"><svg t="1607844120931" class="icon" viewBox="0 0 1024 1024" version="1.1" xmlns="http://www.w3.org/2000/svg" p-id="3748" xmlns:xlink="http://www.w3.org/1999/xlink" width="200" height="200"><defs><style type="text/css"></style></defs><path d="M909.824 664.576C891.392 553.984 814.08 481.28 814.08 481.28c11.264-100.864-29.696-118.784-29.696-118.784-8.192-311.296-266.752-305.664-272.384-305.664-5.632 0-264.192-5.632-272.384 305.664 0 0-40.448 17.92-29.696 118.784 0 0-77.312 72.704-95.744 183.296 0 0-9.728 187.392 88.576 23.04 0 0 22.016 62.464 62.464 118.784 0 0-72.704 25.6-66.56 91.648 0 0-2.56 73.728 154.624 68.608 0 0 110.592-8.704 143.872-57.344h29.184c33.28 48.64 143.872 57.344 143.872 57.344 157.184 5.12 154.624-68.608 154.624-68.608 6.144-66.048-66.56-91.648-66.56-91.648 40.448-56.32 62.464-118.784 62.464-118.784 98.816 164.352 89.088-23.04 89.088-23.04z" p-id="3749"></path></svg>